<svg height="31.993" viewBox="0 0 32 31.993" width="32" xmlns="http://www.w3.org/2000/svg"><path d="m15.929 39.619a8.2 8.2 0 1 0 8.2 8.2 8.19 8.19 0 0 0 -8.2-8.2zm0 13.535a5.333 5.333 0 1 1 5.333-5.333 5.342 5.342 0 0 1 -5.333 5.333zm10.451-13.871a1.913 1.913 0 1 1 -1.913-1.913 1.909 1.909 0 0 1 1.913 1.913zm5.433 1.942a9.468 9.468 0 0 0 -2.584-6.7 9.53 9.53 0 0 0 -6.7-2.584c-2.641-.15-10.558-.15-13.2 0a9.517 9.517 0 0 0 -6.7 2.577 9.5 9.5 0 0 0 -2.584 6.7c-.15 2.641-.15 10.558 0 13.2a9.468 9.468 0 0 0 2.584 6.7 9.542 9.542 0 0 0 6.7 2.584c2.641.15 10.558.15 13.2 0a9.468 9.468 0 0 0 6.7-2.584 9.53 9.53 0 0 0 2.584-6.7c.149-2.642.149-10.552 0-13.193zm-3.413 16.027a5.4 5.4 0 0 1 -3.041 3.041c-2.106.835-7.1.642-9.43.642s-7.332.186-9.43-.642a5.4 5.4 0 0 1 -3.041-3.041c-.835-2.106-.642-7.1-.642-9.43s-.186-7.332.642-9.43a5.4 5.4 0 0 1 3.042-3.042c2.106-.835 7.1-.642 9.43-.642s7.332-.186 9.43.642a5.4 5.4 0 0 1 3.04 3.041c.835 2.106.642 7.1.642 9.43s.193 7.332-.642 9.431z" fill="#fff" transform="translate(.075 -31.825)"/></svg>