<svg id="Layer_1" data-name="Layer 1" xmlns="http://www.w3.org/2000/svg" viewBox="0 0 862 241.51"><defs><style>.cls-1{fill:#df1f26;}.cls-2{fill:#fff;}</style></defs><title>UBQFIT Logo Two Color White1</title><path id="Path_19625" data-name="Path 19625" class="cls-1" d="M931,620.8H492.9a153.22,153.22,0,0,1-51.1-8.2,111.67,111.67,0,0,1-40.4-23.8,110.41,110.41,0,0,1-26.6-37.9,125.26,125.26,0,0,1-9.6-50.9,119.08,119.08,0,0,1,9.8-48.9,117.44,117.44,0,0,1,26.8-38.2,121.64,121.64,0,0,1,39.9-24.8,141,141,0,0,1,98.6.2,121.15,121.15,0,0,1,39.9,25A117,117,0,0,1,607,451.4a118.62,118.62,0,0,1,9.8,48.8,106.69,106.69,0,0,1-2.8,24.6,90.64,90.64,0,0,1-8.5,22.6,73.45,73.45,0,0,1-35.6,32.9v.7H931ZM419.1,500a72.83,72.83,0,0,0,21.1,51.7A73.74,73.74,0,0,0,463,567.2a70.46,70.46,0,0,0,28,5.7,69.45,69.45,0,0,0,28-5.7,73.74,73.74,0,0,0,22.8-15.5,73.89,73.89,0,0,0,0-103.4A73.74,73.74,0,0,0,519,432.8a70.46,70.46,0,0,0-28-5.7,67.81,67.81,0,0,0-28,5.7,73.74,73.74,0,0,0-22.8,15.5A72,72,0,0,0,419.1,500Z" transform="translate(-69 -379.3)"/><path class="cls-2" d="M192.4,506.6a71.07,71.07,0,0,1-3.9,24,52.3,52.3,0,0,1-11.7,19,53,53,0,0,1-19.3,12.6q-11.55,4.5-26.7,4.5c-10.2,0-19.2-1.5-26.9-4.5a51.91,51.91,0,0,1-31-31.6,71.07,71.07,0,0,1-3.9-24V416.7h32.2v88.7a34.4,34.4,0,0,0,2.2,12.6,28.92,28.92,0,0,0,6.1,10,28.54,28.54,0,0,0,9.4,6.6,29.09,29.09,0,0,0,11.9,2.4,28.61,28.61,0,0,0,11.8-2.4,28.13,28.13,0,0,0,9.3-6.6,31.59,31.59,0,0,0,6.1-10,37.05,37.05,0,0,0,2.2-12.6V416.7h32.2v89.9Z" transform="translate(-69 -379.3)"/><path class="cls-2" d="M222.2,416.7h54.6a137.25,137.25,0,0,1,19.1,1.3,52.35,52.35,0,0,1,17.3,5.4,32.83,32.83,0,0,1,12.4,11.3q4.8,7.2,4.8,19.2c0,8.3-2.3,15.1-6.9,20.6a38.69,38.69,0,0,1-18.3,11.7v.4a41.77,41.77,0,0,1,13.1,4,34.86,34.86,0,0,1,10.1,7.6,32.26,32.26,0,0,1,6.5,10.9,38.14,38.14,0,0,1,2.3,13.2c0,7.7-1.7,14.2-5,19.3a39.2,39.2,0,0,1-12.8,12.5,55.29,55.29,0,0,1-17.7,6.8,93.08,93.08,0,0,1-19.5,2.1H222.3V416.7Zm32.2,58.4h23.4a35.49,35.49,0,0,0,7.3-.8,17.91,17.91,0,0,0,6.5-2.7,13.07,13.07,0,0,0,4.6-5,14.49,14.49,0,0,0,1.8-7.4,13.5,13.5,0,0,0-2-7.5,14.4,14.4,0,0,0-5.1-4.7,25.13,25.13,0,0,0-7-2.4,40.56,40.56,0,0,0-7.6-.7H254.4v31.2Zm0,60.6h28.9a38.23,38.23,0,0,0,7.5-.8,18.44,18.44,0,0,0,6.9-2.9,16.47,16.47,0,0,0,5.1-5.4,15.68,15.68,0,0,0,2-8.1,13.36,13.36,0,0,0-2.6-8.4,16.73,16.73,0,0,0-6.5-4.9,32.19,32.19,0,0,0-8.5-2.3,65.24,65.24,0,0,0-8.5-.6H254.3v33.4Z" transform="translate(-69 -379.3)"/><path class="cls-2" d="M645.1,415.3h98.2V445H677.4v29.8h61v29.8h-61v57H645.2V415.3Z" transform="translate(-69 -379.3)"/><path class="cls-2" d="M766,415.3h32.2V561.6H766Z" transform="translate(-69 -379.3)"/><path class="cls-2" d="M855.9,443.8H814.2V415.3H929.9v28.5H888.2V561.6H856V443.8Z" transform="translate(-69 -379.3)"/></svg>