<svg xmlns="http://www.w3.org/2000/svg" width="20" height="20" viewBox="0 0 23.52 19.103"><defs><style>.a{fill:#fff;}</style></defs><path class="a" d="M21.1,52.843c.015.209.015.418.015.627A13.621,13.621,0,0,1,7.4,67.185,13.622,13.622,0,0,1,0,65.021a9.975,9.975,0,0,0,1.164.06,9.654,9.654,0,0,0,5.984-2.059,4.829,4.829,0,0,1-4.507-3.343,6.079,6.079,0,0,0,.91.075,5.1,5.1,0,0,0,1.269-.164A4.821,4.821,0,0,1,.955,54.857V54.8a4.855,4.855,0,0,0,2.179.612,4.828,4.828,0,0,1-1.492-6.447,13.7,13.7,0,0,0,9.939,5.044,5.442,5.442,0,0,1-.119-1.1A4.825,4.825,0,0,1,19.8,49.6a9.49,9.49,0,0,0,3.059-1.164A4.807,4.807,0,0,1,20.744,51.1a9.664,9.664,0,0,0,2.776-.746A10.362,10.362,0,0,1,21.1,52.843Z" transform="translate(0 -48.082)"/></svg>